<svg width="357" height="168" viewBox="0 0 357 168" fill="none" xmlns="http://www.w3.org/2000/svg">
<path d="M98.5331 130.975C97.8532 130.975 97.1175 130.923 96.326 130.819C95.5345 130.712 94.7498 130.486 93.9718 130.14C93.1972 129.799 92.4497 129.313 91.7292 128.683C91.0121 128.053 90.3762 127.222 89.8215 126.189C89.2701 125.157 88.8287 123.885 88.4972 122.374C88.1657 120.859 88 119.055 88 116.96V102.111C88 100 88.1691 98.1955 88.5074 96.6975C88.849 95.2029 89.3006 93.9429 89.8621 92.9174C90.4236 91.8953 91.0628 91.0827 91.7799 90.4795C92.497 89.8729 93.2479 89.4104 94.0327 89.0921C94.8174 88.7737 95.5988 88.5643 96.3767 88.4637C97.1513 88.3666 97.8701 88.318 98.5331 88.318C99.1588 88.318 99.8556 88.3632 100.623 88.4537C101.391 88.5442 102.159 88.7402 102.927 89.0418C103.695 89.3434 104.442 89.7942 105.17 90.394C105.897 90.9905 106.541 91.7998 107.103 92.8219C107.664 93.844 108.114 95.1124 108.452 96.6272C108.79 98.1385 108.96 99.9666 108.96 102.111V116.96C108.96 119.038 108.787 120.826 108.442 122.324C108.094 123.822 107.639 125.09 107.077 126.129C106.516 127.168 105.868 128.002 105.134 128.632C104.4 129.262 103.649 129.753 102.881 130.105C102.11 130.457 101.346 130.69 100.588 130.804C99.8269 130.918 99.1419 130.975 98.5331 130.975ZM98.5331 126.189C99.1588 126.189 99.7068 126.084 100.177 125.873C100.647 125.658 101.036 125.29 101.344 124.767C101.648 124.244 101.88 123.552 102.039 122.691C102.195 121.833 102.272 120.749 102.272 119.439V100.367C102.272 99.0266 102.195 97.9056 102.039 97.0042C101.88 96.1061 101.648 95.3822 101.344 94.8326C101.036 94.2864 100.647 93.8976 100.177 93.6664C99.7068 93.4385 99.1588 93.3246 98.5331 93.3246C97.887 93.3246 97.3255 93.4385 96.8486 93.6664C96.3683 93.8976 95.9708 94.2864 95.6563 94.8326C95.3417 95.3822 95.1066 96.1061 94.951 97.0042C94.7954 97.9056 94.7176 99.0266 94.7176 100.367V119.439C94.7176 120.749 94.7954 121.833 94.951 122.691C95.1066 123.552 95.3417 124.244 95.6563 124.767C95.9708 125.29 96.3683 125.658 96.8486 125.873C97.3255 126.084 97.887 126.189 98.5331 126.189ZM114.732 130.608V85.9604H121.003V130.608H114.732ZM130.886 91.9724C129.729 91.9724 128.816 91.6289 128.146 90.9419C127.48 90.2549 127.147 89.2496 127.147 87.9259C127.147 87.1886 127.233 86.5703 127.406 86.071C127.578 85.5717 127.825 85.1712 128.146 84.8696C128.471 84.568 128.864 84.3468 129.324 84.2061C129.787 84.0687 130.316 84 130.912 84C132.15 84 133.09 84.31 133.733 84.9299C134.379 85.5533 134.702 86.5519 134.702 87.9259C134.702 89.2027 134.375 90.1963 133.722 90.9067C133.07 91.6172 132.124 91.9724 130.886 91.9724ZM127.639 130.608V96.8081H133.91V130.608H127.639ZM145.305 130.608L137.624 96.8081H143.87L147.162 114.779L147.979 121.967H148.177L149.121 114.779L152.388 96.8081H158.436L150.653 130.608H145.305ZM170.327 130.975C168.856 130.975 167.555 130.705 166.425 130.166C165.292 129.626 164.338 128.783 163.564 127.637C162.786 126.491 162.199 125.023 161.803 123.234C161.407 121.441 161.21 119.284 161.21 116.764V110.385C161.21 108.241 161.37 106.402 161.692 104.871C162.013 103.343 162.434 102.059 162.955 101.021C163.476 99.9817 164.08 99.159 164.766 98.5524C165.449 97.9458 166.155 97.4834 166.882 97.165C167.609 96.8467 168.331 96.6422 169.048 96.5518C169.769 96.4613 170.434 96.416 171.042 96.416C172.165 96.416 173.248 96.5836 174.29 96.9187C175.331 97.2538 176.248 97.8269 177.04 98.6379C177.831 99.4488 178.464 100.533 178.937 101.89C179.407 103.247 179.642 104.941 179.642 106.972C179.642 107.659 179.622 108.355 179.581 109.058C179.538 109.762 179.483 110.452 179.419 111.129C179.351 111.81 179.265 112.47 179.16 113.11C179.052 113.747 178.941 114.335 178.825 114.874H167.501V118.313C167.501 119.784 167.558 121.022 167.673 122.027C167.792 123.036 167.986 123.847 168.257 124.46C168.531 125.073 168.903 125.516 169.373 125.787C169.843 126.055 170.434 126.189 171.144 126.189C171.523 126.189 171.895 126.112 172.26 125.958C172.622 125.801 172.94 125.543 173.214 125.184C173.485 124.822 173.703 124.343 173.868 123.746C174.034 123.15 174.117 122.409 174.117 121.525V120.469H179.343V121.771C179.343 124.978 178.572 127.314 177.029 128.778C175.484 130.243 173.249 130.975 170.327 130.975ZM167.501 110.702H173.792C173.809 110.521 173.826 110.28 173.843 109.978C173.86 109.677 173.874 109.362 173.884 109.033C173.89 108.705 173.894 108.381 173.894 108.063C173.894 107.745 173.894 107.472 173.894 107.244C173.894 105.015 173.63 103.412 173.102 102.433C172.571 101.451 171.787 100.96 170.748 100.96C170.204 100.96 169.725 101.086 169.312 101.337C168.9 101.592 168.56 102.018 168.292 102.614C168.029 103.211 167.831 104 167.699 104.982C167.567 105.963 167.501 107.183 167.501 108.641V110.702ZM188.288 91.9724C187.131 91.9724 186.218 91.6289 185.548 90.9419C184.882 90.2549 184.548 89.2496 184.548 87.9259C184.548 87.1886 184.635 86.5703 184.807 86.071C184.98 85.5717 185.227 85.1712 185.548 84.8696C185.873 84.568 186.265 84.3468 186.725 84.2061C187.188 84.0687 187.718 84 188.313 84C189.551 84 190.491 84.31 191.134 84.9299C191.78 85.5533 192.103 86.5519 192.103 87.9259C192.103 89.2027 191.777 90.1963 191.124 90.9067C190.471 91.6172 189.526 91.9724 188.288 91.9724ZM185.041 130.608V96.8081H191.312V130.608H185.041ZM197.851 130.608V96.8081H202.433L202.981 100.246C203.674 98.9696 204.471 98.0129 205.371 97.3762C206.27 96.7361 207.191 96.416 208.131 96.416C209.93 96.416 211.26 96.964 212.119 98.0598C212.978 99.159 213.408 100.804 213.408 102.996C213.408 103.274 213.387 103.606 213.347 103.991C213.306 104.373 213.249 104.774 213.174 105.193C213.1 105.608 213.008 106.025 212.9 106.444C212.792 106.86 212.68 107.24 212.565 107.585H208.207V104.444C208.207 103.757 208.161 103.192 208.07 102.75C207.979 102.307 207.859 101.952 207.71 101.684C207.561 101.413 207.388 101.223 207.192 101.116C206.993 101.012 206.778 100.96 206.548 100.96C206.051 100.96 205.592 101.119 205.173 101.438C204.75 101.756 204.398 102.202 204.118 102.775V130.608H197.851ZM222.082 130.975C221.023 130.975 220.085 130.767 219.266 130.352C218.451 129.933 217.762 129.363 217.201 128.642C216.639 127.925 216.213 127.071 215.922 126.079C215.635 125.09 215.491 124.015 215.491 122.852C215.491 121.461 215.664 120.226 216.009 119.147C216.357 118.065 216.866 117.091 217.536 116.226C218.202 115.358 219.031 114.568 220.022 113.854C221.013 113.143 222.161 112.47 223.467 111.833C224.093 111.521 224.798 111.206 225.583 110.888C226.367 110.566 227.066 110.292 227.678 110.064V105.595C227.678 104.941 227.653 104.333 227.602 103.77C227.555 103.204 227.436 102.713 227.247 102.297C227.054 101.878 226.768 101.55 226.389 101.312C226.011 101.078 225.49 100.96 224.827 100.96C224.384 100.96 223.951 101.041 223.528 101.201C223.108 101.366 222.736 101.644 222.412 102.036C222.09 102.431 221.835 102.956 221.646 103.609C221.456 104.263 221.361 105.072 221.361 106.037V107.51H216.582C216.433 106.873 216.321 106.289 216.247 105.756C216.173 105.223 216.135 104.695 216.135 104.172C216.135 102.912 216.354 101.8 216.79 100.835C217.226 99.8694 217.837 99.0601 218.622 98.4066C219.406 97.7498 220.345 97.2538 221.437 96.9187C222.527 96.5836 223.724 96.416 225.03 96.416C226.728 96.416 228.14 96.6004 229.266 96.969C230.389 97.3376 231.284 97.8906 231.95 98.6278C232.62 99.3617 233.092 100.285 233.366 101.398C233.636 102.51 233.772 103.812 233.772 105.303V130.608H229.114L228.668 127.713C227.991 128.678 227.088 129.463 225.958 130.07C224.825 130.673 223.533 130.975 222.082 130.975ZM224.852 126.189C225.383 126.189 225.901 126.055 226.405 125.787C226.905 125.516 227.33 125.184 227.678 124.792V114.211C227.347 114.341 226.975 114.497 226.562 114.678C226.149 114.859 225.705 115.097 225.228 115.392C224.781 115.67 224.343 116.005 223.913 116.397C223.484 116.789 223.1 117.255 222.762 117.795C222.424 118.334 222.151 118.944 221.945 119.624C221.739 120.305 221.635 121.062 221.635 121.897C221.635 123.187 221.891 124.226 222.402 125.013C222.912 125.797 223.729 126.189 224.852 126.189ZM255.423 130.608V93.6916H248.614V88.6849H268.63V93.6916H261.842V130.608H255.423ZM272.57 130.608V96.8081H277.152L277.7 100.246C278.393 98.9696 279.19 98.0129 280.089 97.3762C280.989 96.7361 281.909 96.416 282.849 96.416C284.649 96.416 285.978 96.964 286.837 98.0598C287.697 99.159 288.126 100.804 288.126 102.996C288.126 103.274 288.106 103.606 288.065 103.991C288.025 104.373 287.967 104.774 287.893 105.193C287.818 105.608 287.727 106.025 287.619 106.444C287.511 106.86 287.399 107.24 287.284 107.585H282.926V104.444C282.926 103.757 282.88 103.192 282.789 102.75C282.697 102.307 282.577 101.952 282.428 101.684C282.28 101.413 282.107 101.223 281.911 101.116C281.711 101.012 281.496 100.96 281.266 100.96C280.769 100.96 280.311 101.119 279.891 101.438C279.469 101.756 279.117 102.202 278.836 102.775V130.608H272.57ZM296.8 130.975C295.742 130.975 294.803 130.767 293.985 130.352C293.169 129.933 292.481 129.363 291.92 128.642C291.358 127.925 290.932 127.071 290.641 126.079C290.353 125.09 290.21 124.015 290.21 122.852C290.21 121.461 290.382 120.226 290.727 119.147C291.076 118.065 291.585 117.091 292.254 116.226C292.921 115.358 293.749 114.568 294.741 113.854C295.732 113.143 296.88 112.47 298.186 111.833C298.811 111.521 299.517 111.206 300.301 110.888C301.086 110.566 301.785 110.292 302.397 110.064V105.595C302.397 104.941 302.371 104.333 302.321 103.77C302.273 103.204 302.155 102.713 301.966 102.297C301.773 101.878 301.487 101.55 301.108 101.312C300.729 101.078 300.208 100.96 299.545 100.96C299.102 100.96 298.669 101.041 298.247 101.201C297.827 101.366 297.455 101.644 297.13 102.036C296.809 102.431 296.554 102.956 296.364 103.609C296.175 104.263 296.08 105.072 296.08 106.037V107.51H291.301C291.152 106.873 291.04 106.289 290.966 105.756C290.891 105.223 290.854 104.695 290.854 104.172C290.854 102.912 291.072 101.8 291.509 100.835C291.945 99.8694 292.555 99.0601 293.34 98.4066C294.125 97.7498 295.064 97.2538 296.156 96.9187C297.245 96.5836 298.443 96.416 299.748 96.416C301.446 96.416 302.859 96.6004 303.985 96.969C305.108 97.3376 306.003 97.8906 306.669 98.6278C307.339 99.3617 307.81 100.285 308.084 101.398C308.355 102.51 308.49 103.812 308.49 105.303V130.608H303.833L303.386 127.713C302.71 128.678 301.807 129.463 300.677 130.07C299.544 130.673 298.252 130.975 296.8 130.975ZM299.571 126.189C300.102 126.189 300.619 126.055 301.123 125.787C301.624 125.516 302.048 125.184 302.397 124.792V114.211C302.065 114.341 301.693 114.497 301.281 114.678C300.868 114.859 300.423 115.097 299.946 115.392C299.5 115.67 299.062 116.005 298.632 116.397C298.203 116.789 297.819 117.255 297.48 117.795C297.142 118.334 296.87 118.944 296.664 119.624C296.457 120.305 296.354 121.062 296.354 121.897C296.354 123.187 296.609 124.226 297.12 125.013C297.631 125.797 298.448 126.189 299.571 126.189ZM321.523 131C321.145 131 320.698 130.963 320.184 130.889C319.673 130.816 319.145 130.648 318.601 130.387C318.056 130.125 317.518 129.733 316.987 129.21C316.46 128.684 315.99 127.967 315.577 127.059C315.164 126.151 314.829 125.027 314.572 123.686C314.319 122.346 314.192 120.717 314.192 118.8V108.078C314.192 106.178 314.327 104.574 314.598 103.267C314.872 101.957 315.23 100.873 315.673 100.015C316.12 99.1539 316.62 98.482 317.175 97.9995C317.727 97.5169 318.28 97.1617 318.834 96.9338C319.389 96.7026 319.918 96.5635 320.422 96.5166C320.923 96.4663 321.339 96.4412 321.67 96.4412C322.283 96.4412 322.861 96.5233 323.406 96.6875C323.95 96.8517 324.446 97.0678 324.892 97.3359C325.339 97.6074 325.735 97.9107 326.08 98.2458C326.428 98.5809 326.717 98.921 326.947 99.2662L326.973 99.2411L326.775 94.9683V85.9604H333.015V130.608H328.139L327.592 127.466C327.311 127.909 326.989 128.343 326.628 128.768C326.262 129.194 325.833 129.574 325.339 129.909C324.842 130.244 324.28 130.511 323.654 130.708C323.025 130.903 322.315 131 321.523 131ZM323.654 126.189C324.067 126.189 324.434 126.121 324.755 125.983C325.077 125.843 325.366 125.662 325.623 125.44C325.88 125.219 326.103 124.961 326.293 124.666C326.482 124.371 326.643 124.07 326.775 123.761V103.438C326.46 102.751 326.042 102.167 325.521 101.684C325.004 101.201 324.373 100.96 323.629 100.96C323.166 100.96 322.744 101.041 322.366 101.201C321.987 101.366 321.657 101.672 321.376 102.121C321.095 102.574 320.876 103.197 320.717 103.991C320.561 104.782 320.483 105.808 320.483 107.068V120.032C320.483 121.288 320.561 122.319 320.717 123.123C320.876 123.924 321.095 124.549 321.376 124.998C321.657 125.45 321.99 125.762 322.376 125.933C322.765 126.104 323.191 126.189 323.654 126.189ZM347.685 130.975C346.213 130.975 344.913 130.705 343.783 130.166C342.65 129.626 341.696 128.783 340.921 127.637C340.143 126.491 339.556 125.023 339.161 123.234C338.765 121.441 338.567 119.284 338.567 116.764V110.385C338.567 108.241 338.728 106.402 339.049 104.871C339.37 103.343 339.792 102.059 340.312 101.021C340.833 99.9817 341.437 99.159 342.124 98.5524C342.807 97.9458 343.512 97.4834 344.24 97.165C344.967 96.8467 345.689 96.6422 346.406 96.5518C347.127 96.4613 347.791 96.416 348.4 96.416C349.523 96.416 350.605 96.5836 351.647 96.9187C352.689 97.2538 353.606 97.8269 354.397 98.6379C355.189 99.4488 355.821 100.533 356.295 101.89C356.765 103.247 357 104.941 357 106.972C357 107.659 356.98 108.355 356.939 109.058C356.895 109.762 356.841 110.452 356.777 111.129C356.709 111.81 356.623 112.47 356.518 113.11C356.41 113.747 356.298 114.335 356.183 114.874H344.859V118.313C344.859 119.784 344.916 121.022 345.031 122.027C345.149 123.036 345.344 123.847 345.615 124.46C345.889 125.073 346.261 125.516 346.731 125.787C347.201 126.055 347.791 126.189 348.501 126.189C348.88 126.189 349.252 126.112 349.618 125.958C349.98 125.801 350.298 125.543 350.572 125.184C350.842 124.822 351.06 124.343 351.226 123.746C351.392 123.15 351.475 122.409 351.475 121.525V120.469H356.701V121.771C356.701 124.978 355.929 127.314 354.387 128.778C352.841 130.243 350.607 130.975 347.685 130.975ZM344.859 110.702H351.15C351.167 110.521 351.184 110.28 351.201 109.978C351.218 109.677 351.231 109.362 351.241 109.033C351.248 108.705 351.251 108.381 351.251 108.063C351.251 107.745 351.251 107.472 351.251 107.244C351.251 105.015 350.988 103.412 350.46 102.433C349.929 101.451 349.144 100.96 348.106 100.96C347.561 100.96 347.083 101.086 346.67 101.337C346.257 101.592 345.917 102.018 345.65 102.614C345.386 103.211 345.188 104 345.056 104.982C344.925 105.963 344.859 107.183 344.859 108.641V110.702Z" fill="white"/>
<path d="M0 5.24521e-06V107.448H20.2642V127.625H40.5301V147.813H60.7775V168H66V60.5522H45.7526V40.3637H25.4867V20.1869H5.22251V5.24521e-06H0ZM60.7775 65.7535V142.614H45.7526V65.7535H60.7775ZM40.5301 45.565V122.425H25.4867V45.565H40.5301ZM20.2642 25.3882V102.246H5.22251V25.3882H20.2642Z" fill="white"/>
</svg>
